<?xml version="1.0" standalone="no"?>
<!DOCTYPE svg PUBLIC "-//W3C//DTD SVG 20010904//EN"
 "http://www.w3.org/TR/2001/REC-SVG-20010904/DTD/svg10.dtd">
<svg version="1.0" xmlns="http://www.w3.org/2000/svg"
 width="500.000000pt" height="500.000000pt" viewBox="0 0 500.000000 500.000000"
 preserveAspectRatio="xMidYMid meet">

<g transform="translate(0.000000,500.000000) scale(0.100000,-0.100000)"
fill="#000000" stroke="none">
<path d="M0 2500 l0 -2500 2500 0 2500 0 0 2500 0 2500 -2500 0 -2500 0 0
-2500z m1973 392 l77 -77 -100 -100 -100 -100 112 -112 113 -113 -78 -77 -77
-78 -192 193 -193 192 175 175 c96 96 177 175 180 175 3 0 40 -35 83 -78z
m710 0 l77 -78 -100 -98 c-55 -54 -100 -100 -100 -102 0 -2 45 -4 100 -4 l100
0 0 -108 0 -107 -180 -180 -180 -180 -77 78 -78 77 98 98 c53 53 97 100 97
102 0 3 -45 4 -100 2 l-100 -3 0 113 0 113 177 177 c98 98 180 178 183 178 3
0 40 -35 83 -78z m607 -677 c-96 -96 -178 -174 -182 -173 -4 2 -41 36 -83 77
l-76 74 103 98 103 98 -112 113 -113 113 77 78 78 77 190 -190 190 -190 -175
-175z"/>
</g>
</svg>
